<svg
      enableBackground="new 0 0 256 256"
      version="1.1"
      viewBox="0 0 256 256"
      width="35"
      height="35"
      fill="#fff"
      xmlns="http://www.w3.org/2000/svg"
    >
      <g>
        <path d="M90.8,216.4c-5.3-4.8-9.1-11-11-18.1L51,88.8C45.7,68.7,57.8,48,77.9,42.7l49.1-13c-8.5-6.6-20.1-8.6-30.7-4.3l-66.9,27C13.5,58.9,5.8,77,12.3,92.9l42.4,104.9C60.6,212.3,76.1,220,90.8,216.4z" />
        <path d="M60.2,87l28.9,109.4c2.6,9.8,9.6,17.3,18.4,20.8c-3-5.4-4.8-11.7-4.8-18.3V85.7c0-20.8,16.9-37.7,37.7-37.7h48c-6.1-13.7-21.3-21.3-36.3-17.4L82.3,49C65.7,53.4,55.8,70.4,60.2,87z" />
        <path d="m214.9 57.5h-72.1c-17.2 0-31.1 13.9-31.1 31.1v113.2c0 17.2 13.9 31.1 31.1 31.1h72.1c17.2 0 31.1-13.9 31.1-31.1v-113.2c0-17.2-13.9-31.1-31.1-31.1zm-18.5 108.2c-4.5 0-8.6-1.7-11.9-4.4l3.8 12c0.7 2.4-0.7 4.3-3.2 4.3h-12.5c-2.5 0-4-2-3.4-4.4l3-11.2c-3.1 2.3-6.9 3.6-11 3.6-10.3 0-18.6-8.3-18.6-18.6s8.3-18.6 18.6-18.6c0.9 0 1.8 0.1 2.7 0.2-2.3-3.1-3.7-6.9-3.7-11.1 0-10.3 8.3-18.6 18.6-18.6s18.6 8.3 18.6 18.6c0 4.2-1.4 8-3.7 11.1 0.9-0.1 1.8-0.2 2.7-0.2 10.3 0 18.6 8.3 18.6 18.6 0 10.4-8.3 18.7-18.6 18.7z" />
      </g>
    </svg>